# xmcd
#
# Track frame offsets:
#	150
#	11967
#	22497
#	35067
#	46022
#	55692
#	72682
#	83760
#	94630
#	106402
#	123042
#	135650
#	146630
#	161297
#	172712
#	184165
#	198122
#	208892
#
# Disc length: 2955 seconds
#
# Revision: 0
# Processed by: cddbd v1.5.2PL0 Copyright (c) Steve Scherf et al.
# Submitted via: EasyCDDAExtractor 12.0.7.1
#
DISCID=f80b8912
DTITLE=Various Artist - Country Favorites
DYEAR=1900
DGENRE=Country
TTITLE0=Frankie Laine - Your Cheatin' Heart
TTITLE1=Jimmy Rogers - Kisses Sweeter Than Wine
TTITLE2=Faron Young - Country Girl
TTITLE3=Judy Stone - Would you Lay With Me In A Field Of Stone
TTITLE4=Duanne Eddy - 40 Miles of Bad Road
TTITLE5=Lynne Anderson - Blue Bayou
TTITLE6=Johnny Paycheck - Heartbreak Tennessee
TTITLE7=Reg Lindsay - On The Road Again
TTITLE8=Lee Conway - The Stories We Could Tell
TTITLE9=Charlie Mccoy - Orange Blossom Special
TTITLE10=Roy Orbison - Crying
TTITLE11=Mickey Gilley - World Of My Own
TTITLE12=Dolly Parton and Willie Nelson - Everything is Beautiful
TTITLE13=Marty Robbins - Restless Cattle
TTITLE14=Patsy Cline - I've Loved and Lost Again
TTITLE15=Dave Dudley - Phantom 309
TTITLE16=Don Williams - Always There to Remind Me
TTITLE17=George Jones - I Love You Because
EXTD=
EXTT0=
EXTT1=
EXTT2=
EXTT3=
EXTT4=
EXTT5=
EXTT6=
EXTT7=
EXTT8=
EXTT9=
EXTT10=
EXTT11=
EXTT12=
EXTT13=
EXTT14=
EXTT15=
EXTT16=
EXTT17=
PLAYORDER=
